<svg xmlns="http://www.w3.org/2000/svg" viewBox="0 0 215.8 201.5"><title>Artboard 1</title><path d="M20.8,77.4s-10.9,1.8-2,5.2l2,.8" style="fill:none;stroke:#fff;stroke-miterlimit:10;stroke-width:5px"/><line x1="37.7" y1="75.4" x2="25.4" y2="76.8" style="fill:none;stroke:#fff;stroke-miterlimit:10;stroke-width:5px"/><path d="M55.3,96.6l10.6,4.1s11.4,4.5,21.3,4.5a120.74,120.74,0,0,0,22.4-2.3l85.1-14.5s5.8-1,5.8-4.5-5.8-4.6-5.8-4.6L139.4,66.6a77.91,77.91,0,0,0-12.8-.8c-3.5,0-11.9.8-11.9.8l-62.2,7" style="fill:none;stroke:#fff;stroke-miterlimit:10;stroke-width:5px"/><line x1="28.6" y1="86.4" x2="46.8" y2="93.4" style="fill:none;stroke:#fff;stroke-miterlimit:10;stroke-width:5px"/><path d="M18.8,82.6v26s-.2,4.6,1.5,6.3a25.86,25.86,0,0,0,5.1,3.2l48,21.4a59.3,59.3,0,0,0,20,3.5,65.72,65.72,0,0,0,19.1-3.5l76.8-19.4s5.8-1.9,7.5-4.3a14.88,14.88,0,0,0,2.4-7.7V86.4" style="fill:none;stroke:#fff;stroke-miterlimit:10;stroke-width:5px"/><path d="M26.6,71.9s-2.9,11.1,7,21.5l.2,19.4-2.3.8s-3.8,1.2-3.8-3.4V96.6a21.62,21.62,0,0,1-7.6-16.4c-.1-10.9,0-12,0-12s-.5-3.1,4.6-3.3S46.3,68.4,49.9,71a8.43,8.43,0,0,1,3.6,6.7V93s2,6.5,7.6,9.8v21.9l-2,1a3.68,3.68,0,0,1-3.9-3.4v-.4c-.2-4.2.2-11.9.2-11.9s-8.8-9.1-8.8-19.3V80.4s.3-2.4-3.8-3.3c-3-.7-11.6-3.6-16.2-5.2l-3-1.1" style="fill:none;stroke:#fff;stroke-miterlimit:10;stroke-width:5px"/><path d="M158.4,71.1v-15a84.08,84.08,0,0,1,25.9,3.2c.8,1.5,1,2.5,1,5.2S185,73.9,184,77l5,1.2a69.12,69.12,0,0,0,2.2-15.7c0-7.7-5.8-8.4-5.8-8.4s-10.1-3.3-25.6-4.2c-4.5,0-4.5,3.2-4.5,3.2L153.8,70" style="fill:none;stroke:#fff;stroke-miterlimit:10;stroke-width:5px"/><polyline points="126.5 65.9 126.5 89.9 153.8 95.3" style="fill:none;stroke:#fff;stroke-miterlimit:10;stroke-width:5px"/><line x1="126.5" y1="89.9" x2="59.1" y2="98.1" style="fill:none;stroke:#fff;stroke-miterlimit:10;stroke-width:5px"/></svg>