<svg xmlns="http://www.w3.org/2000/svg" width="100%" height="100%" viewBox="0 0 139 152.362">
  <g id="Group_56" data-name="Group 56" transform="translate(-64 -44.638)">
    <g id="Contact-icon" transform="translate(63.77 57.393)">
      <g id="Ellipse_6" data-name="Ellipse 6" transform="translate(0.231 -0.393)" fill="#fff" stroke="#5b6770" stroke-width="4">
        <ellipse cx="69.5" cy="70" rx="69.5" ry="70" stroke="none"/>
        <ellipse cx="69.5" cy="70" rx="67.5" ry="68" fill="none"/>
      </g>
    </g>
    <g id="Group_42" data-name="Group 42" transform="translate(89.148 44.638)">
      <path id="Path_133" data-name="Path 133" d="M-116.121,5027.973H-62.26v18.507" transform="translate(116.121 -4896.126)" fill="none" stroke="#5b6770" stroke-width="3"/>
      <g id="Group_41" data-name="Group 41" transform="translate(16.071 0)">
        <g id="Path_140" data-name="Path 140" transform="translate(0 0)" fill="#fff">
          <path d="M 55.26683807373047 101.5939178466797 L 6.376950740814209 101.5939178466797 C 3.687793731689453 101.5939178466797 1.5000079870224 99.4061279296875 1.5000079870224 96.71697235107422 L 1.5000079870224 6.376944541931152 C 1.5000079870224 3.687787532806396 3.687793731689453 1.500001788139343 6.376950740814209 1.500001788139343 L 55.26683807373047 1.500001788139343 C 57.95599365234375 1.500001788139343 60.14379501342773 3.687787532806396 60.14379501342773 6.376944541931152 L 60.14379501342773 96.71697235107422 C 60.14379501342773 99.4061279296875 57.95599365234375 101.5939178466797 55.26683807373047 101.5939178466797 Z" stroke="none"/>
          <path d="M 6.376941680908203 3.000007629394531 C 4.514892578125 3.000007629394531 3 4.514900207519531 3 6.376945495605469 L 3 96.71697235107422 C 3 98.57901763916016 4.514892578125 100.0939102172852 6.376941680908203 100.0939102172852 L 55.266845703125 100.0939102172852 C 57.1288948059082 100.0939102172852 58.6437873840332 98.57901763916016 58.6437873840332 96.71697235107422 L 58.6437873840332 6.376945495605469 C 58.6437873840332 4.514900207519531 57.1288948059082 3.000007629394531 55.266845703125 3.000007629394531 L 6.376941680908203 3.000007629394531 M 6.376941680908203 7.62939453125e-06 L 55.266845703125 7.62939453125e-06 C 58.78872299194336 7.62939453125e-06 61.6437873840332 2.855049133300781 61.6437873840332 6.376945495605469 L 61.6437873840332 96.71697235107422 C 61.6437873840332 100.2388687133789 58.78872299194336 103.0939102172852 55.266845703125 103.0939102172852 L 6.376941680908203 103.0939102172852 C 2.855049133300781 103.0939102172852 0 100.2388687133789 0 96.71697235107422 L 0 6.376945495605469 C 0 2.855049133300781 2.855049133300781 7.62939453125e-06 6.376941680908203 7.62939453125e-06 Z" stroke="none" fill="#5b6770"/>
        </g>
        <g id="Rectangle_40" data-name="Rectangle 40" transform="translate(7.78 9.362)" fill="#fff" stroke="#5b6770" stroke-width="2">
          <rect width="46" height="78" stroke="none"/>
          <rect x="1" y="1" width="44" height="76" fill="none"/>
        </g>
        <line id="Line_14" data-name="Line 14" x2="13.261" transform="translate(23.503 5.604)" fill="none" stroke="#5b6770" stroke-width="2"/>
        <g id="Ellipse_8" data-name="Ellipse 8" transform="translate(25.78 89.362)" fill="none" stroke="#5b6770" stroke-width="2">
          <circle cx="4.5" cy="4.5" r="4.5" stroke="none"/>
          <circle cx="4.5" cy="4.5" r="3.5" fill="none"/>
        </g>
      </g>
      <path id="Path_134" data-name="Path 134" d="M-101.754,4964.147V4917.47s1.4-10.155,11.057-18.706,11.255-10.179,11.255-10.179,6.066-6.219,11.31-1.46,0,11.639,0,11.639l-9.841,10.893s-4.024,1.913,0,6.043c3.489,3.581,7.427,8.441,5.546,19.555a48.186,48.186,0,0,1-1.262,5.354" transform="translate(109.693 -4832.301)" fill="#fff" stroke="#5b6770" stroke-width="3"/>
      <path id="Path_139" data-name="Path 139" d="M5.877,4904.487s3.854-2.412,4.055-6.466a5.53,5.53,0,0,0-5.287-6.092c-2.51-.143-17.136-.563-17.136-.563s-5.031.639-4.787,5.354,4.787,6.646,4.787,6.646" transform="translate(71.149 -4852.562)" fill="#fff" stroke="#5b6770" stroke-width="2"/>
      <path id="Path_135" data-name="Path 135" d="M-34,5005.019s-.374-5.918,6.759-9.044,15.247-7.193,15.212-19.3" transform="translate(79.38 -4873.172)" fill="none" stroke="#5b6770" stroke-width="3"/>
      <path id="Path_138" data-name="Path 138" d="M9.517,4904.487s4.459-2.412,4.693-6.466-3.214-5.949-6.118-6.092-19.829-.563-19.829-.563-5.821.639-5.539,5.354,5.539,6.646,5.539,6.646" transform="translate(71.149 -4843.14)" fill="#fff" stroke="#5b6770" stroke-width="2"/>
      <path id="Path_137" data-name="Path 137" d="M11.03,4904.486s4.711-2.413,4.957-6.465-3.395-5.949-6.464-6.092-20.949-.563-20.949-.563-6.15.639-5.852,5.354,5.852,6.645,5.852,6.645" transform="translate(71.898 -4831.535)" fill="#fff" stroke="#5b6770" stroke-width="2"/>
      <path id="Path_136" data-name="Path 136" d="M7.893,4931.945s-12.975-1.739-15.379-2.059-8.489-.793-8.649-5.585,5.163-5.808,5.163-5.808,27.7-1.949,27.3,6.788c-.373,8.09-9.822,13.386-11.067,14.044-.262.14-.322.17-.322.17v-7.55Z" transform="translate(71.384 -4847.056)" fill="#fff" stroke="#5b6770" stroke-width="2"/>
    </g>
  </g>
</svg>
